<svg xmlns="http://www.w3.org/2000/svg" fill="none" viewBox="0 0 56 56"><g filter="url(#a)"><circle cx="28" cy="28" r="24" fill="#197D19"/></g><ellipse cx="28.0001" cy="28" fill="#EFF5EF" rx="22.3158" ry="24"/><g filter="url(#b)"><ellipse cx="28" cy="28" fill="url(#c)" rx="14.7368" ry="24"/></g><path fill="#27323A" d="m37.1112 20.192-1.4078-.012c-.0178 0-2.2366-.1179-3.1295-.2571-1.9257-.2995-3.4674-.2731-5.0954.7634-1.6682-1.0245-2.7963-1.0881-4.966-.7594-.183.0278-.3586.057-.5328.0861-.6517.1113-2.5312.179-2.5312.179h-1.4034c-.3155 0-.5714.2279-.5714.5089V33.683c0 .281.2559.5089.5714.5089h7.1238c-.0164.0451-.0328.0902-.0328.1405 0 .2731.2589.4944.5819.4944h3.5552c.3229 0 .5833-.2213.5833-.4944 0-.0503-.0164-.0954-.0342-.1405h7.2889c.317 0 .573-.2279.573-.5089V20.7009c0-.281-.256-.5089-.573-.5089Z"/><path fill="#fff" d="M18.618 21.2111h.7471V33.174h-.7471V21.2111Z"/><path fill="#63CF73" d="M20.1523 21.2151c.826-.0039 1.4495-.102 2.0403-.2014.1702-.0298.3409-.0577.5119-.0836 2.1429-.3233 2.9138-.1934 4.3424.7317.0089.0053.0179.0079.0268.0119v10.7886c-1.8512-1.446-3.515-.8721-5.6028-.1405l-1.3186.4904c-.003-2.0001-.003-9.3426 0-11.5971Z"/><path fill="#F4CE73" d="M21.7566 32.9447c2.1533-.7541 3.4525-1.2074 5.0715.228 0 0 .0016.0013.003.0013H21.139l.6176-.2293Zm6.3782.2293c.0074-.0053.0178-.0093.0253-.0159 1.4941-1.4499 2.9063-.9755 5.2383-.1935l.5744.2094h-5.838Z"/><path fill="#63CF73" d="m34.9489 32.8055-1.2738-.4665c-2.2665-.7607-4.0745-1.3625-5.8395.1578V21.7002c.0342-.0146.07-.0265.1012-.0477 1.4004-.9755 2.6415-1.0073 4.4406-.7263.7069.11 1.951.2054 2.5715.2478.006 2.2386.006 9.6568 0 11.6315Z"/><path fill="#fff" d="M35.7095 21.2111h.8303V33.174h-.8303V21.2111Z"/><g filter="url(#d)"><path fill="url(#e)" fill-rule="evenodd" d="m26.6242 11.6957-.1686 2.1862c-.0118.1536.1288.2594.2545.191.8902-.4845 3.6787-2.2639 5.092-6.17481.0648-.1794-.1094-.34129-.2581-.24009-.8348.56805-2.6593 1.7421-3.7868 1.96575 0 0 .7221-.48728 1.1542-1.23527.0424-.07331.0389-.16719-.0083-.23338L27.327 5.94797c-.0934-.13083-.2851-.07663-.3188.09014l-.4907 2.42574-2.303 1.95285c-.1155.0979-.0919.2957.0414.3481l2.3683.9309Z" clip-rule="evenodd"/></g><g filter="url(#f)"><path fill="url(#g)" fill-rule="evenodd" d="M30.6968 10.8339c-.1458.1977-.46.6045-.7501.853-.058.0497-.0501.1331.0164.1737l1.5327.9348c.0922.0562.2169-.0106.2013-.1082-.0713-.4467-.2767-1.3782-.796-1.8671-.058-.0546-.158-.0489-.2043.0138Z" clip-rule="evenodd"/></g><g filter="url(#h)"><path fill="url(#i)" fill-rule="evenodd" d="m26.6242 22.9457-.1686 2.1862c-.0118.1536.1288.2594.2545.191.8902-.4845 3.6787-2.2639 5.092-6.1748.0648-.1794-.1094-.3413-.2581-.2401-.8348.568-2.6593 1.7421-3.7868 1.9657 0 0 .7221-.4872 1.1542-1.2352.0424-.0733.0389-.1672-.0083-.2334L27.327 17.198c-.0934-.1309-.2851-.0767-.3188.0901l-.4907 2.4258-2.303 1.9528c-.1155.0979-.0919.2957.0414.3481l2.3683.9309Z" clip-rule="evenodd"/></g><g filter="url(#j)"><path fill="url(#k)" fill-rule="evenodd" d="M30.6968 22.084c-.1458.1977-.46.6044-.7501.853-.058.0497-.0501.133.0164.1736l1.5327.9348c.0922.0563.2169-.0105.2013-.1081-.0713-.4468-.2767-1.3782-.796-1.8672-.058-.0545-.158-.0488-.2043.0139Z" clip-rule="evenodd"/></g><g filter="url(#l)"><path fill="url(#m)" fill-rule="evenodd" d="m26.6242 34.1957-.1686 2.1862c-.0118.1536.1288.2594.2545.191.8902-.4845 3.6787-2.2639 5.092-6.1748.0648-.1794-.1094-.3413-.2581-.2401-.8348.568-2.6593 1.7421-3.7868 1.9657 0 0 .7221-.4872 1.1542-1.2352.0424-.0733.0389-.1672-.0083-.2334L27.327 28.448c-.0934-.1309-.2851-.0767-.3188.0901l-.4907 2.4258-2.303 1.9528c-.1155.0979-.0919.2957.0414.3481l2.3683.9309Z" clip-rule="evenodd"/></g><g filter="url(#n)"><path fill="url(#o)" fill-rule="evenodd" d="M30.6968 33.334c-.1458.1977-.46.6044-.7501.853-.058.0497-.0501.133.0164.1736l1.5327.9348c.0922.0563.2169-.0105.2013-.1081-.0713-.4468-.2767-1.3782-.796-1.8672-.058-.0545-.158-.0488-.2043.0139Z" clip-rule="evenodd"/></g><g filter="url(#p)"><path fill="url(#q)" fill-rule="evenodd" d="m26.6242 45.4457-.1686 2.1862c-.0118.1536.1288.2594.2545.191.8902-.4845 3.6787-2.2639 5.092-6.1748.0648-.1794-.1094-.3413-.2581-.2401-.8348.568-2.6593 1.7421-3.7868 1.9657 0 0 .7221-.4872 1.1542-1.2352.0424-.0733.0389-.1672-.0083-.2334L27.327 39.698c-.0934-.1309-.2851-.0767-.3188.0901l-.4907 2.4258-2.303 1.9528c-.1155.0979-.0919.2957.0414.3481l2.3683.9309Z" clip-rule="evenodd"/></g><g filter="url(#r)"><path fill="url(#s)" fill-rule="evenodd" d="M30.6968 44.584c-.1458.1977-.46.6044-.7501.853-.058.0497-.0501.133.0164.1736l1.5327.9348c.0922.0563.2169-.0105.2013-.1081-.0713-.4468-.2767-1.3782-.796-1.8672-.058-.0545-.158-.0488-.2043.0139Z" clip-rule="evenodd"/></g><text xml:space="preserve" fill="#000" font-family="Merienda" font-size="5" letter-spacing="0em" style="white-space:pre"><tspan x="9.96766" y="19.025">A</tspan></text><text xml:space="preserve" fill="#000" font-family="Merienda" font-size="5" letter-spacing="0em" style="white-space:pre"><tspan x="8.17842" y="27.275">C</tspan></text><text xml:space="preserve" fill="#000" font-family="Merienda" font-size="5" letter-spacing="0em" style="white-space:pre"><tspan x="8.31758" y="34.775">E</tspan></text><text xml:space="preserve" fill="#000" font-family="Merienda" font-size="5" letter-spacing="0em" style="white-space:pre"><tspan x="10.1041" y="42.275">M</tspan></text><text xml:space="preserve" fill="#000" font-family="Merienda" font-size="5" letter-spacing="0em" style="white-space:pre"><tspan x="42.8244" y="18.275">ج</tspan></text><text xml:space="preserve" fill="#000" font-family="Merienda" font-size="5" letter-spacing="0em" style="white-space:pre"><tspan x="44.1692" y="34.775">ق</tspan></text><text xml:space="preserve" fill="#000" font-family="Merienda" font-size="5" letter-spacing="0em" style="white-space:pre"><tspan x="44.9772" y="27.275">ط</tspan></text><text xml:space="preserve" fill="#000" font-family="Merienda" font-size="5" letter-spacing="0em" style="white-space:pre"><tspan x="41.9469" y="41.525">م</tspan></text><defs><filter id="a" width="56" height="56" x="0" y="0" color-interpolation-filters="sRGB" filterUnits="userSpaceOnUse"><feFlood flood-opacity="0" result="BackgroundImageFix"/><feColorMatrix in="SourceAlpha" result="hardAlpha" values="0 0 0 0 0 0 0 0 0 0 0 0 0 0 0 0 0 0 127 0"/><feOffset/><feGaussianBlur stdDeviation="2"/><feComposite in2="hardAlpha" operator="out"/><feColorMatrix values="0 0 0 0 0.0156597 0 0 0 0 0.341667 0 0 0 0 0.0482604 0 0 0 0.51 0"/><feBlend in2="BackgroundImageFix" result="effect1_dropShadow_313_297"/><feBlend in="SourceGraphic" in2="effect1_dropShadow_313_297" result="shape"/></filter><filter id="b" width="29.4737" height="48" x="13.2631" y="4" color-interpolation-filters="sRGB" filterUnits="userSpaceOnUse"><feFlood flood-opacity="0" result="BackgroundImageFix"/><feBlend in="SourceGraphic" in2="BackgroundImageFix" result="shape"/><feColorMatrix in="SourceAlpha" result="hardAlpha" values="0 0 0 0 0 0 0 0 0 0 0 0 0 0 0 0 0 0 127 0"/><feOffset/><feGaussianBlur stdDeviation="4"/><feComposite in2="hardAlpha" k2="-1" k3="1" operator="arithmetic"/><feColorMatrix values="0 0 0 0 0 0 0 0 0 0 0 0 0 0 0 0 0 0 0.2 0"/><feBlend in2="shape" result="effect1_innerShadow_313_297"/></filter><filter id="d" width="15.6757" height="16.2191" x="20.1403" y="5.875" color-interpolation-filters="sRGB" filterUnits="userSpaceOnUse"><feFlood flood-opacity="0" result="BackgroundImageFix"/><feColorMatrix in="SourceAlpha" result="hardAlpha" values="0 0 0 0 0 0 0 0 0 0 0 0 0 0 0 0 0 0 127 0"/><feOffset dy="4"/><feGaussianBlur stdDeviation="2"/><feComposite in2="hardAlpha" operator="out"/><feColorMatrix values="0 0 0 0 0 0 0 0 0 0 0 0 0 0 0 0 0 0 0.5 0"/><feBlend in2="BackgroundImageFix" result="effect1_dropShadow_313_297"/><feBlend in="SourceGraphic" in2="effect1_dropShadow_313_297" result="shape"/></filter><filter id="f" width="9.79065" height="10.0332" x="25.9078" y="10.7827" color-interpolation-filters="sRGB" filterUnits="userSpaceOnUse"><feFlood flood-opacity="0" result="BackgroundImageFix"/><feColorMatrix in="SourceAlpha" result="hardAlpha" values="0 0 0 0 0 0 0 0 0 0 0 0 0 0 0 0 0 0 127 0"/><feOffset dy="4"/><feGaussianBlur stdDeviation="2"/><feComposite in2="hardAlpha" operator="out"/><feColorMatrix values="0 0 0 0 0 0 0 0 0 0 0 0 0 0 0 0 0 0 0.5 0"/><feBlend in2="BackgroundImageFix" result="effect1_dropShadow_313_297"/><feBlend in="SourceGraphic" in2="effect1_dropShadow_313_297" result="shape"/></filter><filter id="h" width="15.6757" height="16.2191" x="20.1403" y="17.125" color-interpolation-filters="sRGB" filterUnits="userSpaceOnUse"><feFlood flood-opacity="0" result="BackgroundImageFix"/><feColorMatrix in="SourceAlpha" result="hardAlpha" values="0 0 0 0 0 0 0 0 0 0 0 0 0 0 0 0 0 0 127 0"/><feOffset dy="4"/><feGaussianBlur stdDeviation="2"/><feComposite in2="hardAlpha" operator="out"/><feColorMatrix values="0 0 0 0 0 0 0 0 0 0 0 0 0 0 0 0 0 0 0.5 0"/><feBlend in2="BackgroundImageFix" result="effect1_dropShadow_313_297"/><feBlend in="SourceGraphic" in2="effect1_dropShadow_313_297" result="shape"/></filter><filter id="j" width="9.79065" height="10.0332" x="25.9078" y="22.0328" color-interpolation-filters="sRGB" filterUnits="userSpaceOnUse"><feFlood flood-opacity="0" result="BackgroundImageFix"/><feColorMatrix in="SourceAlpha" result="hardAlpha" values="0 0 0 0 0 0 0 0 0 0 0 0 0 0 0 0 0 0 127 0"/><feOffset dy="4"/><feGaussianBlur stdDeviation="2"/><feComposite in2="hardAlpha" operator="out"/><feColorMatrix values="0 0 0 0 0 0 0 0 0 0 0 0 0 0 0 0 0 0 0.5 0"/><feBlend in2="BackgroundImageFix" result="effect1_dropShadow_313_297"/><feBlend in="SourceGraphic" in2="effect1_dropShadow_313_297" result="shape"/></filter><filter id="l" width="15.6757" height="16.2191" x="20.1403" y="28.375" color-interpolation-filters="sRGB" filterUnits="userSpaceOnUse"><feFlood flood-opacity="0" result="BackgroundImageFix"/><feColorMatrix in="SourceAlpha" result="hardAlpha" values="0 0 0 0 0 0 0 0 0 0 0 0 0 0 0 0 0 0 127 0"/><feOffset dy="4"/><feGaussianBlur stdDeviation="2"/><feComposite in2="hardAlpha" operator="out"/><feColorMatrix values="0 0 0 0 0 0 0 0 0 0 0 0 0 0 0 0 0 0 0.5 0"/><feBlend in2="BackgroundImageFix" result="effect1_dropShadow_313_297"/><feBlend in="SourceGraphic" in2="effect1_dropShadow_313_297" result="shape"/></filter><filter id="n" width="9.79065" height="10.0332" x="25.9078" y="33.2828" color-interpolation-filters="sRGB" filterUnits="userSpaceOnUse"><feFlood flood-opacity="0" result="BackgroundImageFix"/><feColorMatrix in="SourceAlpha" result="hardAlpha" values="0 0 0 0 0 0 0 0 0 0 0 0 0 0 0 0 0 0 127 0"/><feOffset dy="4"/><feGaussianBlur stdDeviation="2"/><feComposite in2="hardAlpha" operator="out"/><feColorMatrix values="0 0 0 0 0 0 0 0 0 0 0 0 0 0 0 0 0 0 0.5 0"/><feBlend in2="BackgroundImageFix" result="effect1_dropShadow_313_297"/><feBlend in="SourceGraphic" in2="effect1_dropShadow_313_297" result="shape"/></filter><filter id="p" width="15.6757" height="16.2191" x="20.1403" y="39.625" color-interpolation-filters="sRGB" filterUnits="userSpaceOnUse"><feFlood flood-opacity="0" result="BackgroundImageFix"/><feColorMatrix in="SourceAlpha" result="hardAlpha" values="0 0 0 0 0 0 0 0 0 0 0 0 0 0 0 0 0 0 127 0"/><feOffset dy="4"/><feGaussianBlur stdDeviation="2"/><feComposite in2="hardAlpha" operator="out"/><feColorMatrix values="0 0 0 0 0 0 0 0 0 0 0 0 0 0 0 0 0 0 0.5 0"/><feBlend in2="BackgroundImageFix" result="effect1_dropShadow_313_297"/><feBlend in="SourceGraphic" in2="effect1_dropShadow_313_297" result="shape"/></filter><filter id="r" width="9.79065" height="10.0332" x="25.9078" y="44.5328" color-interpolation-filters="sRGB" filterUnits="userSpaceOnUse"><feFlood flood-opacity="0" result="BackgroundImageFix"/><feColorMatrix in="SourceAlpha" result="hardAlpha" values="0 0 0 0 0 0 0 0 0 0 0 0 0 0 0 0 0 0 127 0"/><feOffset dy="4"/><feGaussianBlur stdDeviation="2"/><feComposite in2="hardAlpha" operator="out"/><feColorMatrix values="0 0 0 0 0 0 0 0 0 0 0 0 0 0 0 0 0 0 0.5 0"/><feBlend in2="BackgroundImageFix" result="effect1_dropShadow_313_297"/><feBlend in="SourceGraphic" in2="effect1_dropShadow_313_297" result="shape"/></filter><linearGradient id="c" x1="28" x2="28" y1="4" y2="52" gradientUnits="userSpaceOnUse"><stop stop-color="#57ED57"/><stop offset=".484375" stop-color="#017401"/><stop offset="1" stop-color="#51D551"/></linearGradient><linearGradient id="e" x1="27.9782" x2="27.9782" y1="5.875" y2="14.0941" gradientUnits="userSpaceOnUse"><stop stop-color="#fff"/><stop offset="1" stop-color="#48C44E"/></linearGradient><linearGradient id="g" x1="30.8031" x2="30.8031" y1="10.7827" y2="12.8159" gradientUnits="userSpaceOnUse"><stop stop-color="#fff"/><stop offset="1" stop-color="#48C44E"/></linearGradient><linearGradient id="i" x1="27.9782" x2="27.9782" y1="17.125" y2="25.3441" gradientUnits="userSpaceOnUse"><stop stop-color="#fff"/><stop offset="1" stop-color="#48C44E"/></linearGradient><linearGradient id="k" x1="30.8031" x2="30.8031" y1="22.0328" y2="24.066" gradientUnits="userSpaceOnUse"><stop stop-color="#fff"/><stop offset="1" stop-color="#48C44E"/></linearGradient><linearGradient id="m" x1="27.9782" x2="27.9782" y1="28.375" y2="36.5941" gradientUnits="userSpaceOnUse"><stop stop-color="#fff"/><stop offset="1" stop-color="#48C44E"/></linearGradient><linearGradient id="o" x1="30.8031" x2="30.8031" y1="33.2828" y2="35.316" gradientUnits="userSpaceOnUse"><stop stop-color="#fff"/><stop offset="1" stop-color="#48C44E"/></linearGradient><linearGradient id="q" x1="27.9782" x2="27.9782" y1="39.625" y2="47.8441" gradientUnits="userSpaceOnUse"><stop stop-color="#fff"/><stop offset="1" stop-color="#48C44E"/></linearGradient><linearGradient id="s" x1="30.8031" x2="30.8031" y1="44.5328" y2="46.566" gradientUnits="userSpaceOnUse"><stop stop-color="#fff"/><stop offset="1" stop-color="#48C44E"/></linearGradient></defs></svg>