<svg xmlns="http://www.w3.org/2000/svg" fill="none" viewBox="0 0 52 58"><g filter="url(#a)"><ellipse cx="26" cy="28.702" fill="#197D19" rx="22" ry="24.702"/></g><ellipse cx="26" cy="28.702" fill="#EFF5EF" rx="20.456" ry="24.702"/><g filter="url(#b)"><ellipse cx="26" cy="28.702" fill="url(#c)" rx="13.509" ry="24.702"/></g><path fill="#27323A" d="m34.352 20.665-1.29-.012c-.017 0-2.05-.121-2.87-.264-1.764-.309-3.178-.282-4.67.785-1.53-1.054-2.563-1.12-4.552-.782l-.489.09c-.597.114-2.32.183-2.32.183h-1.286a.524.524 0 0 0-.524.524v13.362c0 .29.235.524.524.524h6.53c-.015.046-.03.092-.03.144a.52.52 0 0 0 .533.51h3.26a.522.522 0 0 0 .534-.51.43.43 0 0 0-.032-.144h6.682c.29 0 .525-.235.525-.524V21.189a.524.524 0 0 0-.525-.524Z"/><path fill="#fff" d="M17.4 21.714h.685v12.313H17.4V21.714Z"/><path fill="#63CF73" d="M18.806 21.718c.757-.004 1.329-.105 1.87-.207.157-.03.313-.06.47-.086 1.964-.333 2.67-.199 3.98.753.008.006.017.008.025.012v11.104c-1.697-1.488-3.222-.897-5.136-.144l-1.209.505c-.002-2.059-.002-9.616 0-11.937Z"/><path fill="#F4CE73" d="M20.277 33.791c1.974-.776 3.165-1.243 4.649.235l.003.001H19.71l.566-.236Zm5.847.236.023-.016c1.37-1.493 2.664-1.004 4.802-.2l.526.216h-5.351Z"/><path fill="#63CF73" d="m32.37 33.648-1.168-.48c-2.077-.783-3.735-1.403-5.353.162V22.218c.032-.015.064-.027.093-.05 1.284-1.003 2.421-1.036 4.07-.747.649.113 1.789.212 2.358.255.005 2.304.005 9.94 0 11.972Z"/><path fill="#fff" d="M33.067 21.714h.761v12.313h-.761V21.714Z"/><g filter="url(#d)"><path fill="url(#e)" fill-rule="evenodd" d="m24.739 11.92-.155 2.25c-.01.159.118.268.234.197.816-.498 3.372-2.33 4.667-6.355.06-.185-.1-.351-.236-.247-.766.585-2.438 1.793-3.471 2.023 0 0 .661-.501 1.058-1.271a.25.25 0 0 0-.008-.24l-1.445-2.272c-.085-.135-.261-.079-.292.093l-.45 2.496-2.111 2.01c-.106.101-.084.305.038.359l2.17.958Z" clip-rule="evenodd"/></g><g filter="url(#f)"><path fill="url(#g)" fill-rule="evenodd" d="M28.472 11.034c-.134.203-.422.622-.688.878a.115.115 0 0 0 .015.178l1.405.963c.085.057.2-.011.185-.112-.065-.46-.254-1.418-.73-1.921a.12.12 0 0 0-.187.014Z" clip-rule="evenodd"/></g><g filter="url(#h)"><path fill="url(#i)" fill-rule="evenodd" d="m24.739 23.5-.155 2.25c-.01.158.118.267.234.196.816-.498 3.372-2.33 4.667-6.355.06-.185-.1-.351-.236-.247-.766.585-2.438 1.793-3.471 2.023 0 0 .661-.501 1.058-1.271a.25.25 0 0 0-.008-.24l-1.445-2.272c-.085-.135-.261-.079-.292.093l-.45 2.496-2.111 2.01c-.106.101-.084.305.038.359l2.17.958Z" clip-rule="evenodd"/></g><g filter="url(#j)"><path fill="url(#k)" fill-rule="evenodd" d="M28.472 22.613c-.134.203-.422.622-.688.878a.115.115 0 0 0 .015.178l1.405.963c.085.057.2-.011.185-.112-.065-.46-.254-1.418-.73-1.921a.12.12 0 0 0-.187.014Z" clip-rule="evenodd"/></g><g filter="url(#l)"><path fill="url(#m)" fill-rule="evenodd" d="m24.739 35.079-.155 2.25c-.01.158.118.267.234.196.816-.498 3.372-2.33 4.667-6.355.06-.185-.1-.351-.236-.247-.766.585-2.438 1.793-3.471 2.023 0 0 .661-.502 1.058-1.271a.25.25 0 0 0-.008-.24l-1.445-2.272c-.085-.135-.261-.08-.292.093l-.45 2.496-2.111 2.01c-.106.101-.084.305.038.358l2.17.959Z" clip-rule="evenodd"/></g><g filter="url(#n)"><path fill="url(#o)" fill-rule="evenodd" d="M28.472 34.192c-.134.203-.422.622-.688.878a.115.115 0 0 0 .015.178l1.405.963c.085.057.2-.011.185-.112-.065-.46-.254-1.418-.73-1.922a.12.12 0 0 0-.187.015Z" clip-rule="evenodd"/></g><g filter="url(#p)"><path fill="url(#q)" fill-rule="evenodd" d="m24.739 46.657-.155 2.25c-.01.159.118.268.234.197.816-.498 3.372-2.33 4.667-6.355.06-.185-.1-.351-.236-.247-.766.584-2.438 1.793-3.471 2.023 0 0 .661-.502 1.058-1.271a.25.25 0 0 0-.008-.24l-1.445-2.272c-.085-.135-.261-.08-.292.093l-.45 2.496-2.111 2.01c-.106.1-.084.304.038.358l2.17.959Z" clip-rule="evenodd"/></g><g filter="url(#r)"><path fill="url(#s)" fill-rule="evenodd" d="M28.472 45.77c-.134.204-.422.623-.688.879a.115.115 0 0 0 .015.178l1.405.962c.085.058.2-.01.185-.11-.065-.46-.254-1.42-.73-1.923a.12.12 0 0 0-.187.015Z" clip-rule="evenodd"/></g><path fill="#000" d="M9.311 19.587c0-.063.092-.298.275-.705.183-.41.395-.878.635-1.405.243-.53.408-.908.495-1.135l.11-.285a1.409 1.409 0 0 0-.175-.215.817.817 0 0 1 .295-.06c.21 0 .373.133.49.4.073.17.172.55.295 1.14a14.56 14.56 0 0 0 .365 1.625c.09.343.203.61.34.8-.157.093-.287.14-.39.14-.1 0-.173-.03-.22-.09a1.114 1.114 0 0 1-.125-.285 24.28 24.28 0 0 1-.24-1.075c-.073.113-.22.173-.44.18l-.89.035c-.19.513-.328.953-.415 1.32-.27-.113-.405-.242-.405-.385Zm1.69-3.085a93.81 93.81 0 0 0-.735 1.775h1.16a21.496 21.496 0 0 0-.425-1.775ZM9.302 28.373c-.37 0-.681-.15-.935-.45-.253-.3-.38-.736-.38-1.31 0-.423.069-.808.205-1.155.137-.35.35-.635.64-.855.294-.223.624-.335.99-.335.367 0 .634.09.8.27.167.177.25.38.25.61 0 .23-.058.415-.175.555a.57.57 0 0 1-.455.205.771.771 0 0 1-.22-.04c.077-.08.143-.191.2-.335.06-.146.09-.293.09-.44a.594.594 0 0 0-.12-.375c-.076-.106-.2-.16-.37-.16-.256 0-.486.107-.69.32-.2.21-.351.47-.455.78-.1.307-.15.624-.15.95 0 .46.089.805.265 1.035a.83.83 0 0 0 .685.34c.187 0 .379-.056.575-.17a1.34 1.34 0 0 0 .485-.49.24.24 0 0 1 .14.045c.043.03.065.06.065.09-.187.354-.422.599-.705.735a1.67 1.67 0 0 1-.735.18Zm.524 5.945-.445-.005a5.08 5.08 0 0 0-.375.01c-.053.473-.08.898-.08 1.274.77 0 1.327-.05 1.67-.15a.725.725 0 0 1-.2.45.548.548 0 0 1-.405.16 6.97 6.97 0 0 1-.435-.035c-.24-.02-.473-.03-.7-.03-.226 0-.453.022-.68.066a.518.518 0 0 1 .19-.285 1.897 1.897 0 0 1-.005-.19c0-.107.049-.502.145-1.185a1.907 1.907 0 0 0-.24.074 1.374 1.374 0 0 1-.01-.145c0-.203.104-.33.31-.38.077-.56.119-1.006.125-1.34-.086-.006-.148-.028-.185-.065-.033-.036-.05-.101-.05-.195 0-.096.014-.181.04-.255.344.047.717.07 1.12.07a5.82 5.82 0 0 0 1.155-.11.58.58 0 0 1-.14.31c-.07.077-.183.132-.34.166a2.792 2.792 0 0 1-.39.06 7.949 7.949 0 0 1-.69.024c-.003.12-.055.559-.155 1.316.207.006.357.01.45.01.294 0 .502-.049.625-.146.007.054.01.097.01.13 0 .264-.105.396-.315.396Zm3.266 5.409c.187.017.32.075.4.175.08.096.12.231.12.405 0 .17-.055.631-.165 1.385-.11.753-.165 1.282-.165 1.585 0 .3.024.505.07.615-.22-.074-.373-.172-.46-.295a.767.767 0 0 1-.125-.44c0-.17.037-.528.11-1.075.077-.547.127-.964.15-1.25-.136.263-.365.636-.685 1.12-.316.483-.5.765-.55.845a.489.489 0 0 1-.25.07c-.156 0-.245-.028-.265-.085l-.175-.445a18.345 18.345 0 0 0-.585-1.43l-.125.965a12.59 12.59 0 0 0-.115 1.475c0 .103.007.242.02.415-.346 0-.52-.105-.52-.315 0-.03.064-.482.19-1.355.13-.877.195-1.487.195-1.83v-.025a1.87 1.87 0 0 0-.305-.385.386.386 0 0 1 .295-.13c.227 0 .409.128.545.385.14.253.449 1.008.925 2.265a.38.38 0 0 1 .02.045c.03-.047.112-.167.245-.36a19.063 19.063 0 0 0 .585-.895 5.76 5.76 0 0 0 .28-.505c.187-.38.3-.69.34-.93Zm28.114-20.122a.245.245 0 0 1-.18-.075.248.248 0 0 1 .18-.42c.067 0 .123.025.17.075a.24.24 0 0 1 .075.175.224.224 0 0 1-.075.17.224.224 0 0 1-.17.075Zm.05 1.4a2.77 2.77 0 0 1-.67-.08 1.711 1.711 0 0 1-.56-.25c-.16-.11-.287-.25-.38-.42-.093-.17-.14-.37-.14-.6a1.805 1.805 0 0 1 .33-1.045c.11-.157.243-.3.4-.43a2.78 2.78 0 0 1 .535-.345c.2-.103.418-.19.655-.26l-.055.065a12.094 12.094 0 0 1-.265-.085 3.474 3.474 0 0 0-.59-.16 2.37 2.37 0 0 0-.355-.025c-.1 0-.188.008-.265.025a9.857 9.857 0 0 0-.21.05l-.07-.37a1.39 1.39 0 0 1 .29-.085 1.696 1.696 0 0 1 .74.01c.12.027.233.06.34.1l.345.125c.12.04.253.075.4.105.15.027.327.042.53.045h.045l.01.41c-.16 0-.33.018-.51.055a3.062 3.062 0 0 0-1.05.42 2.17 2.17 0 0 0-.435.36 1.64 1.64 0 0 0-.295.445c-.073.167-.11.347-.11.54a.855.855 0 0 0 .41.755c.13.08.278.138.445.175a2.508 2.508 0 0 0 1.035 0 2.92 2.92 0 0 0 .505-.145l.14.34a2.624 2.624 0 0 1-.595.205c-.203.047-.403.07-.6.07Zm1.034 15.953c-.2 0-.388-.024-.565-.07a1.424 1.424 0 0 1-.475-.21 1.01 1.01 0 0 1-.325-.365 1.175 1.175 0 0 1-.115-.54c0-.05.005-.12.015-.21a2.264 2.264 0 0 1 .27-.766l.365.17a3.81 3.81 0 0 0-.125.285 1.59 1.59 0 0 0-.075.235c-.013.07-.02.14-.02.21 0 .157.03.289.09.395a.68.68 0 0 0 .25.255c.107.067.23.115.37.145a2.338 2.338 0 0 0 .975-.009c.16-.037.3-.089.42-.155.12-.064.22-.139.3-.226a.762.762 0 0 0 .17-.284c.034-.1.059-.209.075-.325.017-.12.025-.239.025-.355 0-.14-.018-.27-.055-.39a.75.75 0 0 0-.155-.29.313.313 0 0 0-.24-.11.3.3 0 0 0-.21.09.619.619 0 0 0-.145.22.774.774 0 0 0-.05.27c0 .07.014.13.04.18.03.05.079.09.145.12a.71.71 0 0 0 .26.04 1.427 1.427 0 0 0 .545-.11l.02.35a.758.758 0 0 1-.285.12 1.512 1.512 0 0 1-.325.035c-.17 0-.315-.024-.435-.07a.573.573 0 0 1-.27-.21.645.645 0 0 1-.09-.355c0-.127.02-.254.06-.38.04-.13.097-.249.17-.356a.879.879 0 0 1 .265-.255.624.624 0 0 1 .345-.1c.18 0 .329.059.445.175.12.117.209.27.265.46.06.187.09.386.09.595 0 .164-.015.327-.045.49-.026.16-.075.309-.145.446a1.29 1.29 0 0 1-.305.395c-.123.11-.265.198-.425.265-.156.07-.326.12-.51.15-.183.03-.378.045-.585.045Zm1.47-3.535a.254.254 0 0 1-.18-.07.249.249 0 0 1-.07-.175.249.249 0 0 1 .25-.25c.067 0 .124.025.17.075a.24.24 0 0 1 0 .35.231.231 0 0 1-.17.07Zm-.685 0a.254.254 0 0 1-.18-.07.249.249 0 0 1-.07-.175.249.249 0 0 1 .25-.25c.067 0 .124.025.17.075a.24.24 0 0 1 0 .35.231.231 0 0 1-.17.07Zm.168-5.06a15.8 15.8 0 0 1-1.745-.095l.045-.39c.097.014.207.025.33.035.127.01.265.019.415.025l.49.01c.174.004.359.005.555.005.22 0 .417-.013.59-.04.174-.026.319-.066.435-.12a.751.751 0 0 0 .275-.205.43.43 0 0 0 .095-.275.458.458 0 0 0-.055-.215.473.473 0 0 0-.17-.185.55.55 0 0 0-.305-.075c-.16 0-.32.042-.48.125a2.348 2.348 0 0 0-.45.315c-.14.124-.265.25-.375.38-.11.13-.198.244-.265.34l-.435-.015a4.97 4.97 0 0 1 .38-.53c.15-.183.314-.351.49-.505a2.49 2.49 0 0 1 .565-.375c.197-.096.397-.145.6-.145a.91.91 0 0 1 .47.115.756.756 0 0 1 .305.3c.074.127.11.27.11.43a.93.93 0 0 1-.175.545c-.113.164-.306.295-.58.395-.273.1-.645.15-1.115.15Zm-.78-.56-.1-3.075h.405l.1 2.725-.405.35ZM39.054 44.93a13.55 13.55 0 0 1-.15-.645 7.82 7.82 0 0 1-.09-.58 4.018 4.018 0 0 1-.03-.435c0-.203.036-.372.11-.505a.792.792 0 0 1 .295-.315 1.15 1.15 0 0 1 .41-.155c.153-.027.31-.035.47-.025.163.007.316.027.46.06a1.05 1.05 0 0 0-.02-.325.802.802 0 0 0-.105-.28.537.537 0 0 0-.18-.195.456.456 0 0 0-.25-.07.518.518 0 0 0-.235.055.693.693 0 0 0-.21.17 1.569 1.569 0 0 0-.185.275l-.31-.17c.086-.18.181-.323.285-.43a.997.997 0 0 1 .335-.23.87.87 0 0 1 .775.035c.116.07.208.163.275.28.07.113.12.237.15.37.033.13.05.255.05.375 0 .083-.01.167-.03.25a1.29 1.29 0 0 1-.075.225.735.735 0 0 1-.08.155 3.715 3.715 0 0 0-.505-.115 1.895 1.895 0 0 0-.425-.02.78.78 0 0 0-.32.08.475.475 0 0 0-.205.2.691.691 0 0 0-.07.33c0 .123.01.27.03.44a7.565 7.565 0 0 0 .215 1.095l-.385.1Z"/><defs><filter id="a" width="52" height="57.404" x="0" y="0" color-interpolation-filters="sRGB" filterUnits="userSpaceOnUse"><feFlood flood-opacity="0" result="BackgroundImageFix"/><feColorMatrix in="SourceAlpha" result="hardAlpha" values="0 0 0 0 0 0 0 0 0 0 0 0 0 0 0 0 0 0 127 0"/><feOffset/><feGaussianBlur stdDeviation="2"/><feComposite in2="hardAlpha" operator="out"/><feColorMatrix values="0 0 0 0 0.0156597 0 0 0 0 0.341667 0 0 0 0 0.0482604 0 0 0 0.51 0"/><feBlend in2="BackgroundImageFix" result="effect1_dropShadow_313_297"/><feBlend in="SourceGraphic" in2="effect1_dropShadow_313_297" result="shape"/></filter><filter id="b" width="27.017" height="49.404" x="12.491" y="4" color-interpolation-filters="sRGB" filterUnits="userSpaceOnUse"><feFlood flood-opacity="0" result="BackgroundImageFix"/><feBlend in="SourceGraphic" in2="BackgroundImageFix" result="shape"/><feColorMatrix in="SourceAlpha" result="hardAlpha" values="0 0 0 0 0 0 0 0 0 0 0 0 0 0 0 0 0 0 127 0"/><feOffset/><feGaussianBlur stdDeviation="4"/><feComposite in2="hardAlpha" k2="-1" k3="1" operator="arithmetic"/><feColorMatrix values="0 0 0 0 0 0 0 0 0 0 0 0 0 0 0 0 0 0 0.2 0"/><feBlend in2="shape" result="effect1_innerShadow_313_297"/></filter><filter id="d" width="15.036" height="16.459" x="18.462" y="5.93" color-interpolation-filters="sRGB" filterUnits="userSpaceOnUse"><feFlood flood-opacity="0" result="BackgroundImageFix"/><feColorMatrix in="SourceAlpha" result="hardAlpha" values="0 0 0 0 0 0 0 0 0 0 0 0 0 0 0 0 0 0 127 0"/><feOffset dy="4"/><feGaussianBlur stdDeviation="2"/><feComposite in2="hardAlpha" operator="out"/><feColorMatrix values="0 0 0 0 0 0 0 0 0 0 0 0 0 0 0 0 0 0 0.5 0"/><feBlend in2="BackgroundImageFix" result="effect1_dropShadow_313_297"/><feBlend in="SourceGraphic" in2="effect1_dropShadow_313_297" result="shape"/></filter><filter id="f" width="9.641" height="10.093" x="23.749" y="10.981" color-interpolation-filters="sRGB" filterUnits="userSpaceOnUse"><feFlood flood-opacity="0" result="BackgroundImageFix"/><feColorMatrix in="SourceAlpha" result="hardAlpha" values="0 0 0 0 0 0 0 0 0 0 0 0 0 0 0 0 0 0 127 0"/><feOffset dy="4"/><feGaussianBlur stdDeviation="2"/><feComposite in2="hardAlpha" operator="out"/><feColorMatrix values="0 0 0 0 0 0 0 0 0 0 0 0 0 0 0 0 0 0 0.5 0"/><feBlend in2="BackgroundImageFix" result="effect1_dropShadow_313_297"/><feBlend in="SourceGraphic" in2="effect1_dropShadow_313_297" result="shape"/></filter><filter id="h" width="15.036" height="16.459" x="18.462" y="17.509" color-interpolation-filters="sRGB" filterUnits="userSpaceOnUse"><feFlood flood-opacity="0" result="BackgroundImageFix"/><feColorMatrix in="SourceAlpha" result="hardAlpha" values="0 0 0 0 0 0 0 0 0 0 0 0 0 0 0 0 0 0 127 0"/><feOffset dy="4"/><feGaussianBlur stdDeviation="2"/><feComposite in2="hardAlpha" operator="out"/><feColorMatrix values="0 0 0 0 0 0 0 0 0 0 0 0 0 0 0 0 0 0 0.5 0"/><feBlend in2="BackgroundImageFix" result="effect1_dropShadow_313_297"/><feBlend in="SourceGraphic" in2="effect1_dropShadow_313_297" result="shape"/></filter><filter id="j" width="9.641" height="10.093" x="23.749" y="22.56" color-interpolation-filters="sRGB" filterUnits="userSpaceOnUse"><feFlood flood-opacity="0" result="BackgroundImageFix"/><feColorMatrix in="SourceAlpha" result="hardAlpha" values="0 0 0 0 0 0 0 0 0 0 0 0 0 0 0 0 0 0 127 0"/><feOffset dy="4"/><feGaussianBlur stdDeviation="2"/><feComposite in2="hardAlpha" operator="out"/><feColorMatrix values="0 0 0 0 0 0 0 0 0 0 0 0 0 0 0 0 0 0 0.5 0"/><feBlend in2="BackgroundImageFix" result="effect1_dropShadow_313_297"/><feBlend in="SourceGraphic" in2="effect1_dropShadow_313_297" result="shape"/></filter><filter id="l" width="15.036" height="16.459" x="18.462" y="29.088" color-interpolation-filters="sRGB" filterUnits="userSpaceOnUse"><feFlood flood-opacity="0" result="BackgroundImageFix"/><feColorMatrix in="SourceAlpha" result="hardAlpha" values="0 0 0 0 0 0 0 0 0 0 0 0 0 0 0 0 0 0 127 0"/><feOffset dy="4"/><feGaussianBlur stdDeviation="2"/><feComposite in2="hardAlpha" operator="out"/><feColorMatrix values="0 0 0 0 0 0 0 0 0 0 0 0 0 0 0 0 0 0 0.5 0"/><feBlend in2="BackgroundImageFix" result="effect1_dropShadow_313_297"/><feBlend in="SourceGraphic" in2="effect1_dropShadow_313_297" result="shape"/></filter><filter id="n" width="9.641" height="10.093" x="23.749" y="34.139" color-interpolation-filters="sRGB" filterUnits="userSpaceOnUse"><feFlood flood-opacity="0" result="BackgroundImageFix"/><feColorMatrix in="SourceAlpha" result="hardAlpha" values="0 0 0 0 0 0 0 0 0 0 0 0 0 0 0 0 0 0 127 0"/><feOffset dy="4"/><feGaussianBlur stdDeviation="2"/><feComposite in2="hardAlpha" operator="out"/><feColorMatrix values="0 0 0 0 0 0 0 0 0 0 0 0 0 0 0 0 0 0 0.5 0"/><feBlend in2="BackgroundImageFix" result="effect1_dropShadow_313_297"/><feBlend in="SourceGraphic" in2="effect1_dropShadow_313_297" result="shape"/></filter><filter id="p" width="15.036" height="16.459" x="18.462" y="40.667" color-interpolation-filters="sRGB" filterUnits="userSpaceOnUse"><feFlood flood-opacity="0" result="BackgroundImageFix"/><feColorMatrix in="SourceAlpha" result="hardAlpha" values="0 0 0 0 0 0 0 0 0 0 0 0 0 0 0 0 0 0 127 0"/><feOffset dy="4"/><feGaussianBlur stdDeviation="2"/><feComposite in2="hardAlpha" operator="out"/><feColorMatrix values="0 0 0 0 0 0 0 0 0 0 0 0 0 0 0 0 0 0 0.5 0"/><feBlend in2="BackgroundImageFix" result="effect1_dropShadow_313_297"/><feBlend in="SourceGraphic" in2="effect1_dropShadow_313_297" result="shape"/></filter><filter id="r" width="9.641" height="10.093" x="23.749" y="45.718" color-interpolation-filters="sRGB" filterUnits="userSpaceOnUse"><feFlood flood-opacity="0" result="BackgroundImageFix"/><feColorMatrix in="SourceAlpha" result="hardAlpha" values="0 0 0 0 0 0 0 0 0 0 0 0 0 0 0 0 0 0 127 0"/><feOffset dy="4"/><feGaussianBlur stdDeviation="2"/><feComposite in2="hardAlpha" operator="out"/><feColorMatrix values="0 0 0 0 0 0 0 0 0 0 0 0 0 0 0 0 0 0 0.5 0"/><feBlend in2="BackgroundImageFix" result="effect1_dropShadow_313_297"/><feBlend in="SourceGraphic" in2="effect1_dropShadow_313_297" result="shape"/></filter><linearGradient id="c" x1="26" x2="26" y1="4" y2="53.404" gradientUnits="userSpaceOnUse"><stop stop-color="#57ED57"/><stop offset=".484" stop-color="#017401"/><stop offset="1" stop-color="#51D551"/></linearGradient><linearGradient id="e" x1="25.98" x2="25.98" y1="5.93" y2="14.389" gradientUnits="userSpaceOnUse"><stop stop-color="#fff"/><stop offset="1" stop-color="#48C44E"/></linearGradient><linearGradient id="g" x1="28.57" x2="28.57" y1="10.981" y2="13.074" gradientUnits="userSpaceOnUse"><stop stop-color="#fff"/><stop offset="1" stop-color="#48C44E"/></linearGradient><linearGradient id="i" x1="25.98" x2="25.98" y1="17.509" y2="25.968" gradientUnits="userSpaceOnUse"><stop stop-color="#fff"/><stop offset="1" stop-color="#48C44E"/></linearGradient><linearGradient id="k" x1="28.57" x2="28.57" y1="22.56" y2="24.653" gradientUnits="userSpaceOnUse"><stop stop-color="#fff"/><stop offset="1" stop-color="#48C44E"/></linearGradient><linearGradient id="m" x1="25.98" x2="25.98" y1="29.088" y2="37.547" gradientUnits="userSpaceOnUse"><stop stop-color="#fff"/><stop offset="1" stop-color="#48C44E"/></linearGradient><linearGradient id="o" x1="28.57" x2="28.57" y1="34.139" y2="36.232" gradientUnits="userSpaceOnUse"><stop stop-color="#fff"/><stop offset="1" stop-color="#48C44E"/></linearGradient><linearGradient id="q" x1="25.98" x2="25.98" y1="40.667" y2="49.126" gradientUnits="userSpaceOnUse"><stop stop-color="#fff"/><stop offset="1" stop-color="#48C44E"/></linearGradient><linearGradient id="s" x1="28.57" x2="28.57" y1="45.718" y2="47.811" gradientUnits="userSpaceOnUse"><stop stop-color="#fff"/><stop offset="1" stop-color="#48C44E"/></linearGradient></defs></svg>