<svg xmlns="http://www.w3.org/2000/svg" version="1.0" viewBox="0 0 700 700"><path d="M340 51c-31 2-62 18-89 46-47 49-77 125-84 217-2 19-1 71 1 89 12 91 43 163 92 209 21 19 42 30 69 36l7 2-7-1c-10 0-6 2 6 3 8 1 34 0 36-1l-3-1h-4l4-1 10-2c45-11 88-52 117-111a430 430 0 0 0 37-238c-9-68-27-122-56-166-37-57-85-85-136-81zm7 30c15 21 15 22 14 24 0 2-3 5-6 8l-4 6c3 0 26-12 35-18 12-8 14-7 10 2l-14 27-20 24-16 2h-13v-10l-15-6c-12-4-16-6-16-8l14-14c8-6 15-12 15-14a205 205 0 0 0 7-30c1-3 4 0 9 7zm44 61 4 10c0 4 0 4-3 4s-18-7-18-9l5-5 4-6 2-1c2 0 3 2 6 7zm-42 84 11 15 2 3-2 3-8 9c-5 5-5 5-3 5 6-2 24-11 35-18l12-7c3 0 1 5-7 22-5 12-14 24-22 33-5 4-6 5-12 5l-15 1h-8v-10l-14-6c-14-5-17-6-17-8l11-10 13-11 7-6 3-15c2-14 3-17 5-17l9 12zM242 340v75h-9V265h9v75zm215 0-1 74-4 1h-5V265h10v75zm-69-62c3 3 7 13 7 16s-7 3-15-2l-6-4 11-13 3 3zm-38 90 11 15c2 3 0 5-6 12l-4 5c3 0 25-12 35-18 9-6 12-7 12-4s-5 14-8 19l-3 6 9 3 17 5 9 3h-42l-5 7-10 11-4 4-14 1h-14v-10l-14-6-16-6-19-1h-16l13-4c12-5 22-7 29-7 3 0 5-1 12-8l9-9 3-14 3-16c2-3 5 0 13 12zm37 50 8 16c0 3 0 3-4 3l-10-4-7-4 5-7 6-6 2 2zm-36 92 11 15-2 3c0 2-4 6-7 9-4 4-5 5-3 5a248 248 0 0 0 46-25c2 0 2 4-2 11-6 16-17 33-28 44l-6 5-13 1h-14v-5l-1-5-15-6c-12-5-15-7-15-8l14-14 15-12 3-15c3-15 4-18 6-18l11 15zm40 54 3 10c1 3 1 3-3 3-3 0-6-1-11-4l-6-4 4-5 5-6 2-1c2 0 3 2 6 7zM305 54h2c1-1 0-1-1-1s-2 0-1 1zm88 0h2c1-1 0-1-1-1s-2 0-1 1zm-94 1h2c1-1 0-1-1-1s-2 0-1 1zm100 0h2c1-1 0-1-1-1s-2 0-1 1zm-105 1h2c1-1 0-1-1-1s-2 0-1 1z"/><path d="M416 59c76 19 142 74 179 148a320 320 0 0 1-36 342 272 272 0 0 1-154 96 298 298 0 0 0 229-197A300 300 0 0 0 416 59zm-140 1a300 300 0 0 0 12 583c-88-23-158-86-193-173a303 303 0 0 1-19-176A292 292 0 0 1 281 60c15-5 11-5-5 0z"/><path d="M142 194v1c2 1 1 2-9 25l-9 21 5 5 3-8 3-8 8-1h8l2 7c2 7 3 9 6 9 4 0 4-2 2-7l-4-17c-5-20-6-24-9-26s-4-2-6-1zm6 19 2 10-6 1h-7l3-8 4-10 1-2 3 9zm391-4c-1 1-2 1-2 3l1 2h5l10 1 4 1-5 3c-14 7-19 20-14 31 3 7 17 11 29 8 6-2 7-2 5-5-1-1-1-2-7 0-19 4-30-8-20-22 4-5 14-10 21-11 5-1 5-1 5-4s0-3-4-3l-11-2c-8-3-13-3-17-2z"/><path d="M555 236v5c3 2 5 0 5-3s-3-4-5-2zm-432 61c-10 4-16 13-17 26 0 10 1 15 5 19 7 9 20 8 28-3 2-3 2-3 1-4l-5 3-7 4c-3 1-4 1-8-1s-6-6-7-14c-1-15 9-30 19-26 3 1 4 6 2 12-2 4-3 4 0 4 4 0 8-4 8-9 0-9-9-14-19-11zm452 23c0 21 0 22-6 22-4 0-5 0-5 2v3a144 144 0 0 0 37-2c5-3 7-5 8-9 1-8-6-14-14-13l-9 5-5 3-1-15v-14h-6l1 18zm26 10c2 1 3 5 2 8-2 3-8 4-17 4h-7l3-4c5-6 13-10 19-8zm-489 64 1 4 1 8c-1 7-1 9-3 10s-3 5 0 5v10l-2 9c-1 1 2 1 12 1 14 0 16 0 17-5 1-2 0-2-9-1h-11v-4l1-8c0-3 0-3 5-3 6 0 9-1 9-4 0-2 0-3-7-2h-6l1-7 1-8 5-1c6 0 12-2 13-4l1-2h-29v2zm467 10c-1 2 1 4 3 4 3 0 4-2 3-4s-5-3-6 0zm9-1c-1 3 1 5 3 5s2-1 2-3 0-3-2-3l-3 1zm-5 13c-3 2-6 7-6 12s4 8 10 8c4 0 5 0 4 2-1 3-5 7-10 8-9 2-19 0-21-6l1-11c1-1 0-2-1-3-3-1-3-1-4 3l-2 9c0 4 1 5 3 8 4 5 9 6 17 6s17-3 20-8c5-7 5-20 0-27-3-3-7-3-11-1zm7 6 2 5c0 3 0 4-4 4-3 0-4 0-5-2v-6c2-4 5-4 7-1zm-457 63c-1 1 0 2 1 4l2 5a2182 2182 0 0 0-3 40l3 1c1 0 2-1 2-8l2-27 4 10c8 19 9 19 21-1l6-8-2 14c-1 13-1 16 2 19 4 3 4 3 4-3l2-21c2-19 2-21 0-24-3-3-5-2-6 3l-8 15c-10 15-8 15-13 3-7-20-10-23-15-23l-3 1zm402 18c-3 2-6 5-6 7s3 2 6 0c5-5 12-3 12 4 0 2 0 2-5 2-7 0-12 2-15 6-2 3-2 12 0 21 2 6 2 6 4 6h3l-1-8c-3-10-2-15 0-17s3-2 10-2c8 1 9 0 9-7 0-11-9-18-17-12zM294 645h2c1-1 0-1-1-1s-2 0-1 1zm5 1h2c1-1 0-1-1-1s-2 0-1 1zm100 0h2c1-1 0-1-1-1s-2 0-1 1zm-94 1h2c1-1 0-1-1-1s-2 0-1 1zm88 0h2c1-1 0-1-1-1s-2 0-1 1zm-81 1h2c1-1 0-1-1-1s-2 0-1 1zm74 0h2c1-1 0-1-1-1s-2 0-1 1zm-9 1-3 1h2l3-1 1-1-3 1z"/></svg>